<mxfile host="app.diagrams.net" modified="2023-07-09T04:24:55.920Z" agent="Mozilla/5.0 (Windows NT 10.0; Win64; x64) AppleWebKit/537.36 (KHTML, like Gecko) Chrome/114.0.0.0 Safari/537.36" etag="biFvqBKUdbgsyv8OQen8" version="21.6.1" type="device" pages="2">
  <diagram id="OiweHxfRdBWRjA55KMld" name="Page-1">
    <mxGraphModel dx="2327" dy="1983" grid="1" gridSize="10" guides="1" tooltips="1" connect="1" arrows="1" fold="1" page="1" pageScale="1" pageWidth="827" pageHeight="1169" math="0" shadow="0">
      <root>
        <mxCell id="0" />
        <mxCell id="1" parent="0" />
        <mxCell id="q5K1RIQbRmU1oFJUQUnb-1" value="User" style="shape=umlActor;verticalLabelPosition=bottom;verticalAlign=top;html=1;outlineConnect=0;" parent="1" vertex="1">
          <mxGeometry x="-140" y="90" width="30" height="60" as="geometry" />
        </mxCell>
        <mxCell id="q5K1RIQbRmU1oFJUQUnb-3" value="Admin" style="shape=umlActor;verticalLabelPosition=bottom;verticalAlign=top;html=1;outlineConnect=0;" parent="1" vertex="1">
          <mxGeometry x="-137" y="425" width="30" height="60" as="geometry" />
        </mxCell>
        <mxCell id="q5K1RIQbRmU1oFJUQUnb-7" value="Sign in" style="ellipse;whiteSpace=wrap;html=1;" parent="1" vertex="1">
          <mxGeometry x="-470" y="50" width="140" height="70" as="geometry" />
        </mxCell>
        <mxCell id="q5K1RIQbRmU1oFJUQUnb-8" value="Sign out" style="ellipse;whiteSpace=wrap;html=1;" parent="1" vertex="1">
          <mxGeometry x="-470" y="-110" width="140" height="70" as="geometry" />
        </mxCell>
        <mxCell id="q5K1RIQbRmU1oFJUQUnb-9" value="Sign up" style="ellipse;whiteSpace=wrap;html=1;" parent="1" vertex="1">
          <mxGeometry x="-470" y="-30" width="140" height="70" as="geometry" />
        </mxCell>
        <mxCell id="q5K1RIQbRmU1oFJUQUnb-10" value="Search" style="ellipse;whiteSpace=wrap;html=1;" parent="1" vertex="1">
          <mxGeometry x="-200" y="-200" width="140" height="70" as="geometry" />
        </mxCell>
        <mxCell id="q5K1RIQbRmU1oFJUQUnb-29" value="Manage own comments" style="ellipse;whiteSpace=wrap;html=1;" parent="1" vertex="1">
          <mxGeometry x="80" y="220" width="140" height="70" as="geometry" />
        </mxCell>
        <mxCell id="q5K1RIQbRmU1oFJUQUnb-31" value="Play songs" style="ellipse;whiteSpace=wrap;html=1;" parent="1" vertex="1">
          <mxGeometry x="80" y="60" width="140" height="70" as="geometry" />
        </mxCell>
        <mxCell id="q5K1RIQbRmU1oFJUQUnb-35" value="Manage own playlists" style="ellipse;whiteSpace=wrap;html=1;" parent="1" vertex="1">
          <mxGeometry x="-470" y="130" width="140" height="70" as="geometry" />
        </mxCell>
        <mxCell id="q5K1RIQbRmU1oFJUQUnb-40" value="Manage genres" style="ellipse;whiteSpace=wrap;html=1;" parent="1" vertex="1">
          <mxGeometry x="-30" y="380" width="140" height="70" as="geometry" />
        </mxCell>
        <mxCell id="q5K1RIQbRmU1oFJUQUnb-73" value="Generalization" style="endArrow=block;endSize=16;endFill=0;html=1;rounded=0;exitX=0.25;exitY=0.1;exitDx=0;exitDy=0;exitPerimeter=0;entryX=0;entryY=1;entryDx=0;entryDy=0;entryPerimeter=0;" parent="1" source="q5K1RIQbRmU1oFJUQUnb-3" target="q5K1RIQbRmU1oFJUQUnb-1" edge="1">
          <mxGeometry x="-0.0479" y="-40" width="160" relative="1" as="geometry">
            <mxPoint x="290" y="120" as="sourcePoint" />
            <mxPoint x="450" y="120" as="targetPoint" />
            <Array as="points">
              <mxPoint x="-210" y="260" />
            </Array>
            <mxPoint as="offset" />
          </mxGeometry>
        </mxCell>
        <mxCell id="q5K1RIQbRmU1oFJUQUnb-74" value="" style="endArrow=none;html=1;rounded=0;entryX=0;entryY=0.5;entryDx=0;entryDy=0;exitX=1;exitY=0.3333333333333333;exitDx=0;exitDy=0;exitPerimeter=0;" parent="1" source="q5K1RIQbRmU1oFJUQUnb-3" target="q5K1RIQbRmU1oFJUQUnb-40" edge="1">
          <mxGeometry width="50" height="50" relative="1" as="geometry">
            <mxPoint x="-87" y="440" as="sourcePoint" />
            <mxPoint x="-40" y="410" as="targetPoint" />
          </mxGeometry>
        </mxCell>
        <mxCell id="q5K1RIQbRmU1oFJUQUnb-76" value="" style="endArrow=none;html=1;rounded=0;exitX=1;exitY=0.3333333333333333;exitDx=0;exitDy=0;exitPerimeter=0;entryX=0;entryY=0.5;entryDx=0;entryDy=0;" parent="1" source="q5K1RIQbRmU1oFJUQUnb-1" target="q5K1RIQbRmU1oFJUQUnb-31" edge="1">
          <mxGeometry width="50" height="50" relative="1" as="geometry">
            <mxPoint x="130" y="140" as="sourcePoint" />
            <mxPoint x="180" y="90" as="targetPoint" />
          </mxGeometry>
        </mxCell>
        <mxCell id="q5K1RIQbRmU1oFJUQUnb-77" value="" style="endArrow=none;html=1;rounded=0;exitX=0;exitY=0.3333333333333333;exitDx=0;exitDy=0;exitPerimeter=0;entryX=1;entryY=0.5;entryDx=0;entryDy=0;" parent="1" source="q5K1RIQbRmU1oFJUQUnb-1" target="q5K1RIQbRmU1oFJUQUnb-9" edge="1">
          <mxGeometry width="50" height="50" relative="1" as="geometry">
            <mxPoint x="130" y="140" as="sourcePoint" />
            <mxPoint x="180" y="90" as="targetPoint" />
          </mxGeometry>
        </mxCell>
        <mxCell id="q5K1RIQbRmU1oFJUQUnb-78" value="" style="endArrow=none;html=1;rounded=0;entryX=1;entryY=0.3333333333333333;entryDx=0;entryDy=0;entryPerimeter=0;exitX=0;exitY=0;exitDx=0;exitDy=0;" parent="1" source="q5K1RIQbRmU1oFJUQUnb-29" target="q5K1RIQbRmU1oFJUQUnb-1" edge="1">
          <mxGeometry width="50" height="50" relative="1" as="geometry">
            <mxPoint x="130" y="140" as="sourcePoint" />
            <mxPoint x="180" y="90" as="targetPoint" />
          </mxGeometry>
        </mxCell>
        <mxCell id="q5K1RIQbRmU1oFJUQUnb-79" value="" style="endArrow=none;html=1;rounded=0;exitX=1;exitY=0.5;exitDx=0;exitDy=0;entryX=0;entryY=0.3333333333333333;entryDx=0;entryDy=0;entryPerimeter=0;" parent="1" source="q5K1RIQbRmU1oFJUQUnb-35" target="q5K1RIQbRmU1oFJUQUnb-1" edge="1">
          <mxGeometry width="50" height="50" relative="1" as="geometry">
            <mxPoint x="130" y="140" as="sourcePoint" />
            <mxPoint x="-140" y="110" as="targetPoint" />
          </mxGeometry>
        </mxCell>
        <mxCell id="q5K1RIQbRmU1oFJUQUnb-80" value="" style="endArrow=none;html=1;rounded=0;entryX=1;entryY=1;entryDx=0;entryDy=0;exitX=0;exitY=0.3333333333333333;exitDx=0;exitDy=0;exitPerimeter=0;" parent="1" source="q5K1RIQbRmU1oFJUQUnb-1" target="q5K1RIQbRmU1oFJUQUnb-8" edge="1">
          <mxGeometry width="50" height="50" relative="1" as="geometry">
            <mxPoint x="270" y="40" as="sourcePoint" />
            <mxPoint x="320" y="-10" as="targetPoint" />
          </mxGeometry>
        </mxCell>
        <mxCell id="q5K1RIQbRmU1oFJUQUnb-81" value="" style="endArrow=none;html=1;rounded=0;entryX=0.5;entryY=1;entryDx=0;entryDy=0;exitX=0.25;exitY=0.1;exitDx=0;exitDy=0;exitPerimeter=0;" parent="1" source="q5K1RIQbRmU1oFJUQUnb-1" target="q5K1RIQbRmU1oFJUQUnb-10" edge="1">
          <mxGeometry width="50" height="50" relative="1" as="geometry">
            <mxPoint x="270" y="-60" as="sourcePoint" />
            <mxPoint x="320" y="-110" as="targetPoint" />
          </mxGeometry>
        </mxCell>
        <mxCell id="q5K1RIQbRmU1oFJUQUnb-82" value="" style="endArrow=none;html=1;rounded=0;entryX=1;entryY=0.5;entryDx=0;entryDy=0;exitX=0;exitY=0.3333333333333333;exitDx=0;exitDy=0;exitPerimeter=0;" parent="1" source="q5K1RIQbRmU1oFJUQUnb-1" target="q5K1RIQbRmU1oFJUQUnb-7" edge="1">
          <mxGeometry width="50" height="50" relative="1" as="geometry">
            <mxPoint x="150" y="140" as="sourcePoint" />
            <mxPoint x="200" y="90" as="targetPoint" />
          </mxGeometry>
        </mxCell>
        <mxCell id="MGI6VJuTE-HhzCckV6EO-1" value="Manage information" style="ellipse;whiteSpace=wrap;html=1;" parent="1" vertex="1">
          <mxGeometry x="60" y="-100" width="140" height="70" as="geometry" />
        </mxCell>
        <mxCell id="MGI6VJuTE-HhzCckV6EO-6" value="" style="endArrow=none;html=1;rounded=0;entryX=0;entryY=1;entryDx=0;entryDy=0;exitX=1;exitY=0.3333333333333333;exitDx=0;exitDy=0;exitPerimeter=0;" parent="1" source="q5K1RIQbRmU1oFJUQUnb-1" target="MGI6VJuTE-HhzCckV6EO-1" edge="1">
          <mxGeometry width="50" height="50" relative="1" as="geometry">
            <mxPoint x="130" y="-110" as="sourcePoint" />
            <mxPoint x="180" y="-160" as="targetPoint" />
          </mxGeometry>
        </mxCell>
        <mxCell id="MGI6VJuTE-HhzCckV6EO-7" value="Forgot password" style="ellipse;whiteSpace=wrap;html=1;" parent="1" vertex="1">
          <mxGeometry x="-320" y="-110" width="140" height="70" as="geometry" />
        </mxCell>
        <mxCell id="MGI6VJuTE-HhzCckV6EO-8" value="" style="endArrow=none;html=1;rounded=0;entryX=0.5;entryY=1;entryDx=0;entryDy=0;exitX=0;exitY=0.3333333333333333;exitDx=0;exitDy=0;exitPerimeter=0;" parent="1" source="q5K1RIQbRmU1oFJUQUnb-1" target="MGI6VJuTE-HhzCckV6EO-7" edge="1">
          <mxGeometry width="50" height="50" relative="1" as="geometry">
            <mxPoint x="130" y="-200" as="sourcePoint" />
            <mxPoint x="180" y="-250" as="targetPoint" />
          </mxGeometry>
        </mxCell>
        <mxCell id="7apTSgoCWcXu0LnEAAk9-1" value="Download songs" style="ellipse;whiteSpace=wrap;html=1;" parent="1" vertex="1">
          <mxGeometry x="80" y="140" width="140" height="70" as="geometry" />
        </mxCell>
        <mxCell id="7apTSgoCWcXu0LnEAAk9-2" value="" style="endArrow=none;html=1;rounded=0;exitX=1;exitY=0.3333333333333333;exitDx=0;exitDy=0;exitPerimeter=0;entryX=0;entryY=0.5;entryDx=0;entryDy=0;" parent="1" source="q5K1RIQbRmU1oFJUQUnb-1" target="7apTSgoCWcXu0LnEAAk9-1" edge="1">
          <mxGeometry width="50" height="50" relative="1" as="geometry">
            <mxPoint x="-10" y="-30" as="sourcePoint" />
            <mxPoint x="40" y="-80" as="targetPoint" />
          </mxGeometry>
        </mxCell>
        <mxCell id="FvCLPfmJRrXpx3vRLEYO-1" value="Manage accounts" style="ellipse;whiteSpace=wrap;html=1;" parent="1" vertex="1">
          <mxGeometry x="-120" y="585" width="140" height="70" as="geometry" />
        </mxCell>
        <mxCell id="FvCLPfmJRrXpx3vRLEYO-4" value="Manage albums" style="ellipse;whiteSpace=wrap;html=1;" parent="1" vertex="1">
          <mxGeometry x="20" y="455" width="140" height="70" as="geometry" />
        </mxCell>
        <mxCell id="FvCLPfmJRrXpx3vRLEYO-5" value="Manage artists" style="ellipse;whiteSpace=wrap;html=1;" parent="1" vertex="1">
          <mxGeometry x="-390" y="535" width="140" height="70" as="geometry" />
        </mxCell>
        <mxCell id="FvCLPfmJRrXpx3vRLEYO-6" value="Manage songs" style="ellipse;whiteSpace=wrap;html=1;" parent="1" vertex="1">
          <mxGeometry x="-410" y="455" width="140" height="70" as="geometry" />
        </mxCell>
        <mxCell id="FvCLPfmJRrXpx3vRLEYO-7" value="Manage countries" style="ellipse;whiteSpace=wrap;html=1;" parent="1" vertex="1">
          <mxGeometry x="10" y="535" width="140" height="70" as="geometry" />
        </mxCell>
        <mxCell id="FvCLPfmJRrXpx3vRLEYO-8" value="Manage comments" style="ellipse;whiteSpace=wrap;html=1;" parent="1" vertex="1">
          <mxGeometry x="-420" y="370" width="140" height="70" as="geometry" />
        </mxCell>
        <mxCell id="FvCLPfmJRrXpx3vRLEYO-9" value="Manage playlists" style="ellipse;whiteSpace=wrap;html=1;" parent="1" vertex="1">
          <mxGeometry x="-270" y="585" width="140" height="70" as="geometry" />
        </mxCell>
        <mxCell id="FvCLPfmJRrXpx3vRLEYO-10" value="" style="endArrow=none;html=1;rounded=0;exitX=1;exitY=0.3333333333333333;exitDx=0;exitDy=0;exitPerimeter=0;entryX=0;entryY=0.5;entryDx=0;entryDy=0;" parent="1" source="q5K1RIQbRmU1oFJUQUnb-3" target="FvCLPfmJRrXpx3vRLEYO-4" edge="1">
          <mxGeometry width="50" height="50" relative="1" as="geometry">
            <mxPoint x="33" y="490" as="sourcePoint" />
            <mxPoint x="83" y="440" as="targetPoint" />
          </mxGeometry>
        </mxCell>
        <mxCell id="FvCLPfmJRrXpx3vRLEYO-11" value="" style="endArrow=none;html=1;rounded=0;exitX=1;exitY=0.3333333333333333;exitDx=0;exitDy=0;exitPerimeter=0;entryX=0;entryY=0;entryDx=0;entryDy=0;" parent="1" source="q5K1RIQbRmU1oFJUQUnb-3" target="FvCLPfmJRrXpx3vRLEYO-7" edge="1">
          <mxGeometry width="50" height="50" relative="1" as="geometry">
            <mxPoint x="33" y="490" as="sourcePoint" />
            <mxPoint x="83" y="440" as="targetPoint" />
          </mxGeometry>
        </mxCell>
        <mxCell id="FvCLPfmJRrXpx3vRLEYO-12" value="" style="endArrow=none;html=1;rounded=0;exitX=0.5;exitY=0;exitDx=0;exitDy=0;entryX=1;entryY=0.3333333333333333;entryDx=0;entryDy=0;entryPerimeter=0;" parent="1" source="FvCLPfmJRrXpx3vRLEYO-1" target="q5K1RIQbRmU1oFJUQUnb-3" edge="1">
          <mxGeometry width="50" height="50" relative="1" as="geometry">
            <mxPoint x="33" y="490" as="sourcePoint" />
            <mxPoint x="83" y="440" as="targetPoint" />
          </mxGeometry>
        </mxCell>
        <mxCell id="FvCLPfmJRrXpx3vRLEYO-13" value="" style="endArrow=none;html=1;rounded=0;entryX=0;entryY=0.3333333333333333;entryDx=0;entryDy=0;entryPerimeter=0;exitX=0.5;exitY=0;exitDx=0;exitDy=0;" parent="1" source="FvCLPfmJRrXpx3vRLEYO-9" target="q5K1RIQbRmU1oFJUQUnb-3" edge="1">
          <mxGeometry width="50" height="50" relative="1" as="geometry">
            <mxPoint x="33" y="490" as="sourcePoint" />
            <mxPoint x="83" y="440" as="targetPoint" />
          </mxGeometry>
        </mxCell>
        <mxCell id="FvCLPfmJRrXpx3vRLEYO-14" value="" style="endArrow=none;html=1;rounded=0;exitX=0;exitY=0.3333333333333333;exitDx=0;exitDy=0;exitPerimeter=0;entryX=1;entryY=0.5;entryDx=0;entryDy=0;" parent="1" source="q5K1RIQbRmU1oFJUQUnb-3" target="FvCLPfmJRrXpx3vRLEYO-5" edge="1">
          <mxGeometry width="50" height="50" relative="1" as="geometry">
            <mxPoint x="33" y="490" as="sourcePoint" />
            <mxPoint x="83" y="440" as="targetPoint" />
          </mxGeometry>
        </mxCell>
        <mxCell id="FvCLPfmJRrXpx3vRLEYO-15" value="" style="endArrow=none;html=1;rounded=0;exitX=0;exitY=0.3333333333333333;exitDx=0;exitDy=0;exitPerimeter=0;entryX=1;entryY=0.5;entryDx=0;entryDy=0;" parent="1" source="q5K1RIQbRmU1oFJUQUnb-3" target="FvCLPfmJRrXpx3vRLEYO-6" edge="1">
          <mxGeometry width="50" height="50" relative="1" as="geometry">
            <mxPoint x="33" y="490" as="sourcePoint" />
            <mxPoint x="83" y="440" as="targetPoint" />
          </mxGeometry>
        </mxCell>
        <mxCell id="FvCLPfmJRrXpx3vRLEYO-16" value="" style="endArrow=none;html=1;rounded=0;exitX=0;exitY=0.3333333333333333;exitDx=0;exitDy=0;exitPerimeter=0;entryX=1;entryY=0.5;entryDx=0;entryDy=0;" parent="1" source="q5K1RIQbRmU1oFJUQUnb-3" target="FvCLPfmJRrXpx3vRLEYO-8" edge="1">
          <mxGeometry width="50" height="50" relative="1" as="geometry">
            <mxPoint x="33" y="490" as="sourcePoint" />
            <mxPoint x="-270" y="405" as="targetPoint" />
          </mxGeometry>
        </mxCell>
        <mxCell id="FvCLPfmJRrXpx3vRLEYO-17" value="Search by genre" style="ellipse;whiteSpace=wrap;html=1;" parent="1" vertex="1">
          <mxGeometry x="-420" y="-220" width="140" height="70" as="geometry" />
        </mxCell>
        <mxCell id="FvCLPfmJRrXpx3vRLEYO-18" value="Search by album" style="ellipse;whiteSpace=wrap;html=1;" parent="1" vertex="1">
          <mxGeometry x="-363" y="-320" width="140" height="70" as="geometry" />
        </mxCell>
        <mxCell id="FvCLPfmJRrXpx3vRLEYO-19" value="Search by country" style="ellipse;whiteSpace=wrap;html=1;" parent="1" vertex="1">
          <mxGeometry x="-200" y="-350" width="140" height="70" as="geometry" />
        </mxCell>
        <mxCell id="FvCLPfmJRrXpx3vRLEYO-20" value="Search by song" style="ellipse;whiteSpace=wrap;html=1;" parent="1" vertex="1">
          <mxGeometry x="-30" y="-340" width="140" height="70" as="geometry" />
        </mxCell>
        <mxCell id="FvCLPfmJRrXpx3vRLEYO-21" value="Search by song" style="ellipse;whiteSpace=wrap;html=1;" parent="1" vertex="1">
          <mxGeometry x="50" y="-180" width="140" height="70" as="geometry" />
        </mxCell>
        <mxCell id="FvCLPfmJRrXpx3vRLEYO-22" value="Search by artist" style="ellipse;whiteSpace=wrap;html=1;" parent="1" vertex="1">
          <mxGeometry x="30" y="-260" width="140" height="70" as="geometry" />
        </mxCell>
        <mxCell id="FvCLPfmJRrXpx3vRLEYO-23" value="&amp;lt;&amp;lt;extend&amp;gt;&amp;gt;" style="endArrow=open;endSize=16;endFill=0;html=1;rounded=0;exitX=1;exitY=1;exitDx=0;exitDy=0;entryX=0;entryY=0.5;entryDx=0;entryDy=0;dashed=1;" parent="1" source="FvCLPfmJRrXpx3vRLEYO-17" target="q5K1RIQbRmU1oFJUQUnb-10" edge="1">
          <mxGeometry width="160" relative="1" as="geometry">
            <mxPoint x="120" y="-220" as="sourcePoint" />
            <mxPoint x="280" y="-220" as="targetPoint" />
          </mxGeometry>
        </mxCell>
        <mxCell id="FvCLPfmJRrXpx3vRLEYO-24" value="&amp;lt;&amp;lt;extend&amp;gt;&amp;gt;" style="endArrow=open;endSize=16;endFill=0;html=1;rounded=0;exitX=0.5;exitY=1;exitDx=0;exitDy=0;dashed=1;" parent="1" source="FvCLPfmJRrXpx3vRLEYO-18" target="q5K1RIQbRmU1oFJUQUnb-10" edge="1">
          <mxGeometry width="160" relative="1" as="geometry">
            <mxPoint x="250.16234860828126" y="-390.4225280807964" as="sourcePoint" />
            <mxPoint x="140" y="-250" as="targetPoint" />
          </mxGeometry>
        </mxCell>
        <mxCell id="FvCLPfmJRrXpx3vRLEYO-25" value="&amp;lt;&amp;lt;extend&amp;gt;&amp;gt;" style="endArrow=open;endSize=16;endFill=0;html=1;rounded=0;exitX=0.5;exitY=1;exitDx=0;exitDy=0;dashed=1;" parent="1" source="FvCLPfmJRrXpx3vRLEYO-19" target="q5K1RIQbRmU1oFJUQUnb-10" edge="1">
          <mxGeometry width="160" relative="1" as="geometry">
            <mxPoint x="-120.00000000000023" y="-280" as="sourcePoint" />
            <mxPoint x="150" y="-240" as="targetPoint" />
          </mxGeometry>
        </mxCell>
        <mxCell id="FvCLPfmJRrXpx3vRLEYO-26" value="&amp;lt;&amp;lt;extend&amp;gt;&amp;gt;" style="endArrow=open;endSize=16;endFill=0;html=1;rounded=0;exitX=0;exitY=1;exitDx=0;exitDy=0;dashed=1;" parent="1" source="FvCLPfmJRrXpx3vRLEYO-20" target="q5K1RIQbRmU1oFJUQUnb-10" edge="1">
          <mxGeometry width="160" relative="1" as="geometry">
            <mxPoint x="270.16234860828126" y="-370.4225280807964" as="sourcePoint" />
            <mxPoint x="160" y="-230" as="targetPoint" />
          </mxGeometry>
        </mxCell>
        <mxCell id="FvCLPfmJRrXpx3vRLEYO-27" value="&amp;lt;&amp;lt;extend&amp;gt;&amp;gt;" style="endArrow=open;endSize=16;endFill=0;html=1;rounded=0;exitX=0;exitY=0.5;exitDx=0;exitDy=0;dashed=1;" parent="1" source="FvCLPfmJRrXpx3vRLEYO-22" target="q5K1RIQbRmU1oFJUQUnb-10" edge="1">
          <mxGeometry width="160" relative="1" as="geometry">
            <mxPoint x="280.16234860828126" y="-360.4225280807964" as="sourcePoint" />
            <mxPoint x="170" y="-220" as="targetPoint" />
          </mxGeometry>
        </mxCell>
        <mxCell id="FvCLPfmJRrXpx3vRLEYO-28" value="&amp;lt;&amp;lt;extend&amp;gt;&amp;gt;" style="endArrow=open;endSize=16;endFill=0;html=1;rounded=0;exitX=0;exitY=0.5;exitDx=0;exitDy=0;dashed=1;" parent="1" source="FvCLPfmJRrXpx3vRLEYO-21" target="q5K1RIQbRmU1oFJUQUnb-10" edge="1">
          <mxGeometry width="160" relative="1" as="geometry">
            <mxPoint x="59.99489930374148" y="-159.49229421857558" as="sourcePoint" />
            <mxPoint x="180" y="-210" as="targetPoint" />
          </mxGeometry>
        </mxCell>
        <mxCell id="MFvWCISJMWi7_uQAumlD-1" value="Manage own diary" style="ellipse;whiteSpace=wrap;html=1;" parent="1" vertex="1">
          <mxGeometry x="80" y="-20" width="140" height="70" as="geometry" />
        </mxCell>
        <mxCell id="MFvWCISJMWi7_uQAumlD-2" value="" style="endArrow=none;html=1;rounded=0;entryX=0;entryY=0.5;entryDx=0;entryDy=0;exitX=1;exitY=0.3333333333333333;exitDx=0;exitDy=0;exitPerimeter=0;" parent="1" source="q5K1RIQbRmU1oFJUQUnb-1" target="MFvWCISJMWi7_uQAumlD-1" edge="1">
          <mxGeometry width="50" height="50" relative="1" as="geometry">
            <mxPoint x="-100" y="120" as="sourcePoint" />
            <mxPoint x="-10" y="9" as="targetPoint" />
          </mxGeometry>
        </mxCell>
        <mxCell id="MFvWCISJMWi7_uQAumlD-3" value="Play music game" style="ellipse;whiteSpace=wrap;html=1;" parent="1" vertex="1">
          <mxGeometry x="-90" y="-110" width="140" height="70" as="geometry" />
        </mxCell>
        <mxCell id="MFvWCISJMWi7_uQAumlD-4" value="" style="endArrow=none;html=1;rounded=0;entryX=0.5;entryY=1;entryDx=0;entryDy=0;exitX=1;exitY=0.3333333333333333;exitDx=0;exitDy=0;exitPerimeter=0;" parent="1" source="q5K1RIQbRmU1oFJUQUnb-1" target="MFvWCISJMWi7_uQAumlD-3" edge="1">
          <mxGeometry width="50" height="50" relative="1" as="geometry">
            <mxPoint x="-100" y="120" as="sourcePoint" />
            <mxPoint x="-10" y="9" as="targetPoint" />
          </mxGeometry>
        </mxCell>
        <mxCell id="pnTzZeHueA0OPCIGT9p_-2" value="Timer" style="ellipse;whiteSpace=wrap;html=1;" vertex="1" parent="1">
          <mxGeometry x="-470" y="210" width="140" height="70" as="geometry" />
        </mxCell>
        <mxCell id="pnTzZeHueA0OPCIGT9p_-3" value="Ringtone" style="ellipse;whiteSpace=wrap;html=1;" vertex="1" parent="1">
          <mxGeometry x="-470" y="290" width="140" height="70" as="geometry" />
        </mxCell>
        <mxCell id="pnTzZeHueA0OPCIGT9p_-4" value="Theme" style="ellipse;whiteSpace=wrap;html=1;" vertex="1" parent="1">
          <mxGeometry x="80" y="300" width="140" height="70" as="geometry" />
        </mxCell>
        <mxCell id="pnTzZeHueA0OPCIGT9p_-5" value="" style="endArrow=none;html=1;rounded=0;exitX=1;exitY=0.5;exitDx=0;exitDy=0;entryX=0;entryY=0.3333333333333333;entryDx=0;entryDy=0;entryPerimeter=0;" edge="1" parent="1" source="pnTzZeHueA0OPCIGT9p_-2" target="q5K1RIQbRmU1oFJUQUnb-1">
          <mxGeometry width="50" height="50" relative="1" as="geometry">
            <mxPoint x="-320" y="175" as="sourcePoint" />
            <mxPoint x="-240" y="270" as="targetPoint" />
          </mxGeometry>
        </mxCell>
        <mxCell id="pnTzZeHueA0OPCIGT9p_-6" value="" style="endArrow=none;html=1;rounded=0;exitX=0;exitY=0.5;exitDx=0;exitDy=0;entryX=1;entryY=0.3333333333333333;entryDx=0;entryDy=0;entryPerimeter=0;" edge="1" parent="1" source="pnTzZeHueA0OPCIGT9p_-4" target="q5K1RIQbRmU1oFJUQUnb-1">
          <mxGeometry width="50" height="50" relative="1" as="geometry">
            <mxPoint x="-310" y="185" as="sourcePoint" />
            <mxPoint x="-120" y="130" as="targetPoint" />
          </mxGeometry>
        </mxCell>
        <mxCell id="pnTzZeHueA0OPCIGT9p_-7" value="" style="endArrow=none;html=1;rounded=0;exitX=1;exitY=0.5;exitDx=0;exitDy=0;entryX=0;entryY=0.3333333333333333;entryDx=0;entryDy=0;entryPerimeter=0;" edge="1" parent="1" source="pnTzZeHueA0OPCIGT9p_-3" target="q5K1RIQbRmU1oFJUQUnb-1">
          <mxGeometry width="50" height="50" relative="1" as="geometry">
            <mxPoint x="-300" y="195" as="sourcePoint" />
            <mxPoint x="-110" y="140" as="targetPoint" />
          </mxGeometry>
        </mxCell>
      </root>
    </mxGraphModel>
  </diagram>
  <diagram id="AbUPwFujo9A-FoS50MLn" name="Page-1">
    <mxGraphModel>
      <root>
        <mxCell id="0" />
        <mxCell id="1" parent="0" />
      </root>
    </mxGraphModel>
  </diagram>
</mxfile>
